<?xml version="1.0" encoding="UTF-8"?>
<svg version="1.1" xmlns="http://www.w3.org/2000/svg" width="512" height="512">
<path d="M0 0 C7.20395201 4.39900899 11.71629555 12.09818676 15.5 19.4375 C15.5 20.0975 15.5 20.7575 15.5 21.4375 C16.16193359 21.17122803 16.82386719 20.90495605 17.50585938 20.63061523 C52.86828785 6.49355354 86.98939202 -2.02021342 125.125 -1.875 C126.14290619 -1.87284485 127.16081238 -1.8706897 128.20956421 -1.86846924 C142.81863523 -1.81879854 157.15075853 -1.56790191 171.5 1.4375 C172.47485352 1.63617676 173.44970703 1.83485352 174.45410156 2.03955078 C195.43053035 6.42744367 215.7727263 13.09134574 235.5 21.4375 C235.77457031 20.71433594 236.04914063 19.99117187 236.33203125 19.24609375 C239.80777581 10.88803241 244.49014022 3.41166269 252.7890625 -0.6953125 C259.2524133 -2.7628397 267.667548 -2.84094932 273.9375 -0.0625 C279.77806501 3.46695971 284.45032996 8.92452978 286.5 15.4375 C287.83329442 25.70643108 285.67426235 32.67524551 280.5 41.4375 C279.48698008 43.43093689 278.48342769 45.42929932 277.5 47.4375 C278.29921875 48.03175781 279.0984375 48.62601563 279.921875 49.23828125 C287.86833474 55.20789429 295.34102316 61.53991802 302.5 68.4375 C303.16080566 69.07107422 303.82161133 69.70464844 304.50244141 70.35742188 C313.98922289 79.5003697 322.72744533 88.79653898 330.5 99.4375 C331.35806152 100.58855017 332.21613451 101.73959177 333.07421875 102.890625 C339.11236829 111.08180614 344.47095521 119.59554105 349.5 128.4375 C349.86448242 129.06930176 350.22896484 129.70110352 350.60449219 130.35205078 C372.21034998 168.10032572 381.97698095 210.86689997 381.8125 254.0625 C381.81034485 255.08040619 381.8081897 256.09831238 381.80596924 257.14706421 C381.75629854 271.75613523 381.50540191 286.08825853 378.5 300.4375 C378.20198486 301.89978027 378.20198486 301.89978027 377.89794922 303.39160156 C367.77732806 351.7734774 345.8608123 395.76178269 311.5 431.4375 C310.86787598 432.09685547 310.23575195 432.75621094 309.58447266 433.43554688 C300.44002521 442.92380305 291.14265991 451.6637044 280.5 459.4375 C279.34894983 460.29556152 278.19790823 461.15363451 277.046875 462.01171875 C268.85724019 468.04927396 260.35461724 473.43207302 251.5 478.4375 C250.79278809 478.8396875 250.08557617 479.241875 249.35693359 479.65625 C226.22154164 492.6816741 201.05037591 501.43051461 175.0625 506.75 C174.34360596 506.89735596 173.62471191 507.04471191 172.8840332 507.1965332 C158.20839502 509.98590125 143.68331162 510.78642619 128.77270508 510.75317383 C125.83311513 510.7500221 122.8945442 510.77354926 119.95507812 510.79882812 C106.58193808 510.84348737 93.68583289 509.63801542 80.5 507.4375 C78.79444946 507.15531616 78.79444946 507.15531616 77.05444336 506.86743164 C74.4587378 506.40117402 71.88725061 505.8824418 69.3125 505.3125 C67.92357544 505.00554199 67.92357544 505.00554199 66.5065918 504.69238281 C22.05590415 494.35655661 -18.67940564 472.04842102 -51.5 440.4375 C-52.15935547 439.80537598 -52.81871094 439.17325195 -53.49804688 438.52197266 C-62.98630305 429.37752521 -71.7262044 420.08015991 -79.5 409.4375 C-80.35806152 408.28644983 -81.21613451 407.13540823 -82.07421875 405.984375 C-88.11177396 397.79474019 -93.49457302 389.29211724 -98.5 380.4375 C-98.9021875 379.73028809 -99.304375 379.02307617 -99.71875 378.29443359 C-112.7441741 355.15904164 -121.49301461 329.98787591 -126.8125 304 C-126.95985596 303.28110596 -127.10721191 302.56221191 -127.2590332 301.8215332 C-130.23289088 286.17524391 -130.87300362 270.70181954 -130.8125 254.8125 C-130.81034485 253.79459381 -130.8081897 252.77668762 -130.80596924 251.72793579 C-130.75629854 237.11886477 -130.50540191 222.78674147 -127.5 208.4375 C-127.30132324 207.46264648 -127.10264648 206.48779297 -126.89794922 205.48339844 C-116.77732806 157.1015226 -94.8608123 113.11321731 -60.5 77.4375 C-59.86787598 76.77814453 -59.23575195 76.11878906 -58.58447266 75.43945312 C-50.27068892 66.81309156 -41.86822741 58.71030051 -32.2578125 51.5390625 C-30.14335646 49.92776314 -28.29493902 48.38306327 -26.5 46.4375 C-27.06589844 45.46167969 -27.63179688 44.48585937 -28.21484375 43.48046875 C-28.95587182 42.19539475 -29.69674939 40.91023396 -30.4375 39.625 C-30.81068359 38.98240234 -31.18386719 38.33980469 -31.56835938 37.67773438 C-36.02449042 29.9296867 -37.08892112 21.79318449 -34.88671875 12.984375 C-32.19082612 6.95127609 -27.02769425 2.21318502 -21.171875 -0.734375 C-14.65441959 -2.75440504 -6.28656277 -2.83320914 0 0 Z " fill="#584496" transform="translate(130.5,1.5625)"/>
<path d="M0 0 C1.01790619 0.00215515 2.03581238 0.0043103 3.08456421 0.00653076 C17.69363523 0.05620146 32.02575853 0.30709809 46.375 3.3125 C47.34985352 3.51117676 48.32470703 3.70985352 49.32910156 3.91455078 C70.30553035 8.30244367 90.6477263 14.96634574 110.375 23.3125 C110.78685547 22.22775391 110.78685547 22.22775391 111.20703125 21.12109375 C114.68277581 12.76303241 119.36514022 5.28666269 127.6640625 1.1796875 C134.1274133 -0.8878397 142.542548 -0.96594932 148.8125 1.8125 C154.65306501 5.34195971 159.32532996 10.79952978 161.375 17.3125 C162.70829442 27.58143108 160.54926235 34.55024551 155.375 43.3125 C154.36198008 45.30593689 153.35842769 47.30429932 152.375 49.3125 C153.17421875 49.90675781 153.9734375 50.50101563 154.796875 51.11328125 C162.74333474 57.08289429 170.21602316 63.41491802 177.375 70.3125 C178.03580566 70.94607422 178.69661133 71.57964844 179.37744141 72.23242188 C188.86422289 81.3753697 197.60244533 90.67153898 205.375 101.3125 C206.23306152 102.46355017 207.09113451 103.61459177 207.94921875 104.765625 C213.98736829 112.95680614 219.34595521 121.47054105 224.375 130.3125 C224.73948242 130.94430176 225.10396484 131.57610352 225.47949219 132.22705078 C247.08534998 169.97532572 256.85198095 212.74189997 256.6875 255.9375 C256.68534485 256.95540619 256.6831897 257.97331238 256.68096924 259.02206421 C256.63129854 273.63113523 256.38040191 287.96325853 253.375 302.3125 C253.07698486 303.77478027 253.07698486 303.77478027 252.77294922 305.26660156 C242.65232806 353.6484774 220.7358123 397.63678269 186.375 433.3125 C185.74287598 433.97185547 185.11075195 434.63121094 184.45947266 435.31054688 C177.16646656 442.87775207 169.81860799 450.28848887 161.5625 456.8125 C160.71014771 457.48841187 160.71014771 457.48841187 159.84057617 458.17797852 C157.04326315 460.31191055 154.80091149 461.59618558 151.375 462.3125 C150.88640503 461.44020752 150.88640503 461.44020752 150.38793945 460.55029297 C144.3472753 449.77972451 138.25969359 439.04571156 131.9375 428.4375 C127.07755604 420.26918202 122.34260409 412.03681799 117.6875 403.75 C117.08687744 402.68475098 116.48625488 401.61950195 115.86743164 400.52197266 C115.30918701 399.52343262 114.75094238 398.52489258 114.17578125 397.49609375 C113.68247314 396.61493896 113.18916504 395.73378418 112.6809082 394.82592773 C111.40410266 392.3685127 110.35610747 389.90042864 109.375 387.3125 C110.12265625 386.87679688 110.8703125 386.44109375 111.640625 385.9921875 C119.45430454 381.52524496 119.45430454 381.52524496 124.375 374.3125 C125.11874647 368.97032106 125.03742361 364.73925854 122.75 359.8125 C118.98574614 355.85012752 115.62593357 354.16886309 110.1875 353.95703125 C104.87292858 354.02398308 101.43570541 356.04230776 97.0625 358.875 C95.69833771 359.74147914 94.327437 360.59746354 92.94921875 361.44140625 C92.35713623 361.82369385 91.76505371 362.20598145 91.1550293 362.59985352 C89.375 363.3125 89.375 363.3125 87.29907227 363.15429688 C84.84469776 362.08048856 84.27094459 361.05933769 83.015625 358.71484375 C82.62246094 357.99619141 82.22929687 357.27753906 81.82421875 356.53710938 C81.42847656 355.78236328 81.03273438 355.02761719 80.625 354.25 C80.21378906 353.49138672 79.80257812 352.73277344 79.37890625 351.95117188 C78.36573617 350.07798532 77.3687944 348.19603767 76.375 346.3125 C77.02339844 345.39597656 77.67179688 344.47945313 78.33984375 343.53515625 C80.77734006 339.67539722 81.10884706 337.79712092 80.375 333.3125 C78.6289921 330.23161456 78.6289921 330.23161456 75.375 328.3125 C73.81107281 328.36232423 72.24813115 328.44944641 70.6875 328.5625 C68.03125 328.38671875 68.03125 328.38671875 65.375 327.3125 C61.85443062 322.92939112 59.4160961 318.06278579 56.83984375 313.08203125 C54.11207963 307.92473855 51.1247496 302.9148606 48.1875 297.875 C46.89058813 295.62707404 45.59503253 293.3783651 44.30078125 291.12890625 C40.49580182 284.52134965 36.6859349 277.91662307 32.875 271.3125 C31.6249765 269.14584689 30.37497653 266.97918021 29.125 264.8125 C28.50625 263.74 27.8875 262.6675 27.25 261.5625 C-8.375 199.8125 -8.375 199.8125 -10.25024414 196.56201172 C-11.49935518 194.39692929 -12.74854129 192.23189018 -13.99780273 190.06689453 C-17.13702309 184.62634294 -20.27490563 179.18502784 -23.41015625 173.7421875 C-29.43247329 163.29043801 -35.47169337 152.84950452 -41.5625 142.4375 C-46.98421178 133.16750223 -52.32704915 123.85418248 -57.64422607 114.52404785 C-62.84545129 105.3996716 -68.10527878 96.31117226 -73.40844727 87.24560547 C-78.27688694 78.92038751 -83.10805652 70.57412329 -87.91650391 62.21411133 C-90.87046711 57.07928946 -93.83202582 51.94949606 -96.82701111 46.83850098 C-98.23637766 44.43252104 -99.64106256 42.02382344 -101.04544067 39.6149292 C-102.04390791 37.90680633 -103.04911449 36.20262859 -104.05444336 34.49853516 C-104.65393799 33.46905762 -105.25343262 32.43958008 -105.87109375 31.37890625 C-106.40404053 30.47084229 -106.9369873 29.56277832 -107.48608398 28.62719727 C-108.625 26.3125 -108.625 26.3125 -108.625 23.3125 C-73.13830099 8.35286476 -38.53349363 -0.1467285 0 0 Z " fill="#584496" transform="translate(255.625,-0.3125)"/>
<path d="M0 0 C1.01790619 0.00215515 2.03581238 0.0043103 3.08456421 0.00653076 C17.69363523 0.05620146 32.02575853 0.30709809 46.375 3.3125 C47.34985352 3.51117676 48.32470703 3.70985352 49.32910156 3.91455078 C70.30553035 8.30244367 90.6477263 14.96634574 110.375 23.3125 C110.78685547 22.22775391 110.78685547 22.22775391 111.20703125 21.12109375 C114.68277581 12.76303241 119.36514022 5.28666269 127.6640625 1.1796875 C134.1274133 -0.8878397 142.542548 -0.96594932 148.8125 1.8125 C154.65306501 5.34195971 159.32532996 10.79952978 161.375 17.3125 C163.18448383 31.24900527 157.72354032 39.89855326 150.31323242 51.14355469 C144.22954917 60.45539005 138.86603315 70.21732081 133.34667969 79.86914062 C130.20352053 85.35838241 127.03854718 90.83499188 123.875 96.3125 C122.62488718 98.47910158 121.37488737 100.64576836 120.125 102.8125 C108.875 122.3125 108.875 122.3125 97.625 141.8125 C97.00616943 142.88516113 96.38733887 143.95782227 95.74975586 145.06298828 C94.50064482 147.22807071 93.25145871 149.39310982 92.00219727 151.55810547 C88.86297691 156.99865706 85.72509437 162.43997216 82.58984375 167.8828125 C81.33083049 170.06776672 80.07171626 172.25266277 78.8125 174.4375 C78.19479736 175.50935547 77.57709473 176.58121094 76.94067383 177.68554688 C72.67604425 185.07779509 68.37481814 192.44799866 64.0625 199.8125 C59.6811082 207.29876277 55.39319643 214.82521598 51.21289062 222.42529297 C47.59025262 228.98428362 43.83689906 235.46485729 40.0625 241.9375 C39.47533203 242.94554687 38.88816406 243.95359375 38.28320312 244.9921875 C35.06731516 250.49043709 31.78191269 255.93047282 28.375 261.3125 C25.71934213 258.91280318 24.09501447 256.34805811 22.328125 253.24609375 C21.73837891 252.21677734 21.14863281 251.18746094 20.54101562 250.12695312 C19.90873047 249.01255859 19.27644531 247.89816406 18.625 246.75 C17.95558653 245.57848539 17.28565574 244.40726624 16.61523438 243.23632812 C15.22260003 240.80306166 13.83220253 238.36853768 12.44335938 235.93310547 C9.27470234 230.38092407 6.07320559 224.84769338 2.875 219.3125 C1.62484475 217.14592291 0.37484527 214.97925593 -0.875 212.8125 C-1.49375 211.74 -2.1125 210.6675 -2.75 209.5625 C-8.375 199.8125 -8.375 199.8125 -10.25024414 196.56201172 C-11.49935518 194.39692929 -12.74854129 192.23189018 -13.99780273 190.06689453 C-17.13702309 184.62634294 -20.27490563 179.18502784 -23.41015625 173.7421875 C-29.43247329 163.29043801 -35.47169337 152.84950452 -41.5625 142.4375 C-46.98421178 133.16750223 -52.32704915 123.85418248 -57.64422607 114.52404785 C-62.84545129 105.3996716 -68.10527878 96.31117226 -73.40844727 87.24560547 C-78.27688694 78.92038751 -83.10805652 70.57412329 -87.91650391 62.21411133 C-90.87046711 57.07928946 -93.83202582 51.94949606 -96.82701111 46.83850098 C-98.23637766 44.43252104 -99.64106256 42.02382344 -101.04544067 39.6149292 C-102.04390791 37.90680633 -103.04911449 36.20262859 -104.05444336 34.49853516 C-104.65393799 33.46905762 -105.25343262 32.43958008 -105.87109375 31.37890625 C-106.40404053 30.47084229 -106.9369873 29.56277832 -107.48608398 28.62719727 C-108.625 26.3125 -108.625 26.3125 -108.625 23.3125 C-73.13830099 8.35286476 -38.53349363 -0.1467285 0 0 Z " fill="#584496" transform="translate(255.625,-0.3125)"/>
<path d="M0 0 C9.61812883 5.9015695 14.50624349 17.36960236 19.31640625 27.13671875 C22.28194563 33.09956128 25.54236815 38.8359954 28.9375 44.5625 C30.17768236 46.67152286 31.41724438 48.78091061 32.65625 50.890625 C33.29046875 51.96892578 33.9246875 53.04722656 34.578125 54.15820312 C37.72484108 59.52744733 40.83158619 64.91958191 43.9375 70.3125 C44.55939209 71.39160645 45.18128418 72.47071289 45.82202148 73.58251953 C47.08449731 75.77332951 48.34678556 77.9642476 49.60888672 80.15527344 C52.73680148 85.58409942 55.86858448 91.01069281 59 96.4375 C60.25001879 98.60415583 61.50001878 100.7708225 62.75 102.9375 C63.36875 104.01 63.9875 105.0825 64.625 106.1875 C96.5 161.4375 128.375 216.6875 160.25 271.9375 C160.86963623 273.01153076 161.48927246 274.08556152 162.12768555 275.19213867 C163.36875254 277.34333224 164.60980093 279.49453655 165.85083008 281.64575195 C168.76498344 286.69712999 171.67931818 291.7484031 174.59432983 296.79928589 C175.62673478 298.58816918 176.65907956 300.37708717 177.69140625 302.16601562 C178.98685948 304.41087636 180.2824257 306.6556719 181.578125 308.90039062 C182.16464844 309.91681641 182.75117188 310.93324219 183.35546875 311.98046875 C183.90630127 312.92543213 184.45713379 313.87039551 185.0246582 314.84399414 C185.93365018 316.44191269 186.81197714 318.05830704 187.63745117 319.70092773 C188.67061705 321.83519836 188.67061705 321.83519836 190.5 324.4375 C192.88542555 325.33927098 192.88542555 325.33927098 195.4375 325.125 C199.15714422 325.23472402 200.29879632 325.31020788 203.5625 327.375 C206.07599239 330.05065319 206.45632604 330.98329078 206.8125 334.6875 C206.5 338.4375 206.5 338.4375 202.5 344.4375 C205.47 349.7175 208.44 354.9975 211.5 360.4375 C216.30397285 359.47670543 219.23289415 357.90637953 223.25 355.375 C227.90846292 352.60216328 231.91015093 350.26300084 237.46875 350.84375 C242.37094085 352.2766981 246.02839447 354.87391912 249.5 358.5625 C251.50379124 364.32339983 251.49130729 370.1531832 249.0625 375.75 C245.16012654 379.84273315 240.5546117 382.91019415 235.5 385.4375 C237.51221033 390.67178301 240.12163184 395.464112 242.8125 400.375 C243.34447998 401.34791992 243.87645996 402.32083984 244.42456055 403.32324219 C248.60695096 410.92091499 252.96091946 418.40523479 257.40234375 425.85375977 C261.94158703 433.46746954 266.39011085 441.1305726 270.8125 448.8125 C271.3177269 449.68980774 271.3177269 449.68980774 271.8331604 450.58483887 C273.72370109 453.86814382 275.61261188 457.1523819 277.5 460.4375 C273.46603734 464.83964179 269.05488165 467.91374516 264 471.0625 C263.18063965 471.5766748 262.3612793 472.09084961 261.51708984 472.62060547 C231.81014345 490.9695082 231.81014345 490.9695082 222.5 490.4375 C220.97623463 487.79630669 219.4524704 485.15511273 217.92871094 482.51391602 C216.58432862 480.18366432 215.23993029 477.85342188 213.89550781 475.52319336 C210.4468146 469.54567017 206.99840815 463.56798203 203.55078125 457.58984375 C202.91865723 456.49397949 202.2865332 455.39811523 201.63525391 454.26904297 C200.38309881 452.09779761 199.13146718 449.92625028 197.88037109 447.75439453 C194.9736431 442.71107084 192.05766393 437.67379168 189.11328125 432.65234375 C188.59540039 431.76667725 188.07751953 430.88101074 187.54394531 429.96850586 C186.58211292 428.32524342 185.61681477 426.68400284 184.64746094 425.04516602 C181.5 419.66068174 181.5 419.66068174 181.5 417.4375 C180.5821875 417.9428125 179.664375 418.448125 178.71875 418.96875 C166.2578125 425.64425223 166.2578125 425.64425223 159.5 424.4375 C154.23405656 422.57893173 151.70604232 419.83435804 148.5 415.4375 C146.76235926 410.22457778 146.59952691 405.4457291 149.0625 400.5 C153.59435919 393.82147067 162.46462796 389.95518602 169.5 386.4375 C167.19121105 380.3965425 164.57545036 374.50190505 160.5 369.4375 C157.56881034 368.51691442 155.64066414 369.03868551 152.5 369.4375 C149.36219199 367.81048844 147.25486528 366.38928666 145.0625 363.625 C144.20930437 360.30701701 144.73158394 357.74759993 145.5 354.4375 C146.056875 353.756875 146.61375 353.07625 147.1875 352.375 C147.620625 351.735625 148.05375 351.09625 148.5 350.4375 C147.4058379 346.2822328 145.71379976 342.77243387 143.55078125 339.078125 C142.9578125 338.05847656 142.36484375 337.03882813 141.75390625 335.98828125 C141.11324219 334.89902344 140.47257813 333.80976563 139.8125 332.6875 C139.13743361 331.53029028 138.46296538 330.37273143 137.7890625 329.21484375 C136.38984195 326.81179418 134.98807065 324.4102608 133.58447266 322.00976562 C130.36550635 316.49963188 127.18480155 310.96742383 124 305.4375 C122.75017876 303.27073021 121.5001782 301.10406385 120.25 298.9375 C82.75 233.9375 82.75 233.9375 80.87475586 230.68701172 C79.62564482 228.52192929 78.37645871 226.35689018 77.12719727 224.19189453 C73.98797691 218.75134294 70.85009437 213.31002784 67.71484375 207.8671875 C61.69252671 197.41543801 55.65330663 186.97450452 49.5625 176.5625 C44.14078822 167.29250223 38.79795085 157.97918248 33.48077393 148.64904785 C28.27954871 139.5246716 23.01972122 130.43617226 17.71655273 121.37060547 C13.47382679 114.11538191 9.26014464 106.84389524 5.0625 99.5625 C4.13606689 97.95604614 4.13606689 97.95604614 3.19091797 96.31713867 C0.2912223 91.28695437 -2.60550483 86.25508997 -5.49659729 81.21995544 C-14.38634332 65.69924855 -14.38634332 65.69924855 -23.65234375 50.40234375 C-25.94468552 46.72393487 -28.19687112 43.02257484 -30.4375 39.3125 C-30.8279248 38.67159424 -31.21834961 38.03068848 -31.62060547 37.37036133 C-36.01313172 30.08182547 -36.14381641 23.83510535 -35.5 15.4375 C-33.83561428 8.77995713 -29.02788702 4.24628622 -23.5 0.4375 C-16.68054245 -2.99511286 -6.98021801 -3.14582359 0 0 Z " fill="#ED4E57" transform="translate(130.5,1.5625)"/>
<path d="M0 0 C3.86050629 1.28683543 4.15440683 2.55500982 6.07421875 6.07421875 C6.65623047 7.12843018 7.23824219 8.1826416 7.83789062 9.26879883 C8.44826172 10.39697021 9.05863281 11.5251416 9.6875 12.6875 C10.94046302 14.97707893 12.19436413 17.26614475 13.44921875 19.5546875 C14.05556152 20.66424805 14.6619043 21.77380859 15.28662109 22.91699219 C16.7344314 25.52214301 18.22231535 28.08602668 19.76953125 30.6328125 C20.15471924 31.27130127 20.53990723 31.90979004 20.93676758 32.56762695 C21.92720153 34.19303027 22.93180529 35.80977583 23.9375 37.42578125 C25 40 25 40 24.26171875 42.2421875 C23.63716797 43.11230469 23.63716797 43.11230469 23 44 C21.14847772 46.82600768 21.0004842 48.01355752 21.125 51.5 C22.07434228 55.29736911 22.97252291 56.61471502 26 59 C28.18687896 60.35142054 28.18687896 60.35142054 31.625 59.25 C33.765625 59.19140625 33.765625 59.19140625 36 60 C40.41083373 65.35931721 43.57715582 71.50237242 46 78 C45.47567383 78.29656494 44.95134766 78.59312988 44.41113281 78.89868164 C42.01327932 80.26861851 39.63195221 81.66511239 37.25 83.0625 C36.0125 83.76149414 36.0125 83.76149414 34.75 84.47460938 C29.35810467 87.67061185 26.49391498 90.20097726 24 96 C22.9726651 102.16256654 24.43258257 105.94615864 28 111 C31.74342888 114.40311716 35.46438565 115.44303653 40.53515625 115.43359375 C44.90662694 114.66460287 48.5993364 112.42416035 52.4609375 110.3125 C55 109 55 109 57 109 C57.35078613 109.63164062 57.70157227 110.26328125 58.06298828 110.9140625 C68.0456903 128.86805071 78.24139639 146.68314013 88.76953125 164.32421875 C89.37466553 165.34040283 89.9797998 166.35658691 90.60327148 167.40356445 C91.76143303 169.34596272 92.92354421 171.28601286 94.09008789 173.22338867 C94.60434326 174.08552979 95.11859863 174.9476709 95.6484375 175.8359375 C96.10395996 176.59438965 96.55948242 177.3528418 97.02880859 178.13427734 C98 180 98 180 98 182 C98.99 182.33 99.98 182.66 101 183 C78.78053072 191.48534324 56.62472081 197.9675969 33 201 C32.33320221 201.08732895 31.66640442 201.1746579 30.97940063 201.26463318 C25.25114712 201.96264085 19.59945711 202.17560719 13.83203125 202.203125 C12.87592453 202.20882507 11.91981781 202.21452515 10.93473816 202.22039795 C8.91524339 202.2297971 6.89573363 202.23636156 4.8762207 202.24023438 C1.86575499 202.24983025 -1.14399402 202.28085684 -4.15429688 202.3125 C-17.67052518 202.38636788 -30.67406149 201.23780336 -44 199 C-45.70458374 198.71769531 -45.70458374 198.71769531 -47.44360352 198.4296875 C-50.04000148 197.96385981 -52.61196869 197.44416824 -55.1875 196.875 C-56.10257324 196.67543701 -57.01764648 196.47587402 -57.96044922 196.27026367 C-71.91237461 193.05480822 -85.7412101 188.3983291 -99 183 C-98.01 182.67 -97.02 182.34 -96 182 C-94.94495571 179.72089366 -94.94495571 179.72089366 -94 177 C-92.974849 175.08344321 -91.91556831 173.1849447 -90.83203125 171.30078125 C-90.19330078 170.18654785 -89.55457031 169.07231445 -88.89648438 167.92431641 C-88.20189944 166.72033346 -87.50723604 165.51639576 -86.8125 164.3125 C-86.09543636 163.0644436 -85.37864337 161.81623165 -84.66210938 160.56787109 C-82.44588794 156.70932579 -80.22325685 152.85449442 -78 149 C-77.30252255 147.78990458 -76.60509303 146.57978154 -75.90771484 145.36962891 C-72.71088943 139.82287859 -69.51091644 134.27795331 -66.30859375 128.734375 C-62.51739026 122.16856742 -58.7499855 115.58943139 -55 109 C-51.69891615 109.65870251 -49.17834583 110.92579715 -46.25 112.5625 C-41.34298048 115.03039985 -38.45593427 115.8799894 -33 115 C-28.38010688 113.11042209 -25.62171492 110.979672 -22.9375 106.75 C-21.62078876 101.48315504 -21.45143408 97.10369356 -23.921875 92.15234375 C-27.58016012 87.19559324 -32.87377319 84.53370594 -38.23706055 81.75170898 C-42.90125219 79.29624344 -42.90125219 79.29624344 -44 76 C-42.6256377 73.35069735 -41.21319118 70.88963603 -39.625 68.375 C-39.19960937 67.68148437 -38.77421875 66.98796875 -38.3359375 66.2734375 C-35.21221301 61.21221301 -35.21221301 61.21221301 -34 60 C-32.37990641 59.79095567 -30.75317119 59.63214143 -29.125 59.5 C-26.15077151 59.25720584 -23.84924786 58.94974929 -21 58 C-19.42762769 54.42642656 -19.50832481 49.83030832 -20 46 C-20.99387334 44.66209359 -21.9926892 43.32781878 -23 42 C-21.58781553 37.33026117 -18.94226806 33.10927615 -16.5625 28.875 C-16.13018066 28.1010791 -15.69786133 27.3271582 -15.25244141 26.52978516 C-10.26387365 17.63169272 -5.14119969 8.81053555 0 0 Z " fill="#584496" transform="translate(255,310)"/>
<path d="M0 0 C5.84056501 3.52945971 10.51282996 8.98702978 12.5625 15.5 C14.37198383 29.43650527 8.91104032 38.08605326 1.50073242 49.33105469 C-4.58295083 58.64289005 -9.94646685 68.40482081 -15.46582031 78.05664062 C-18.60897947 83.54588241 -21.77395282 89.02249188 -24.9375 94.5 C-26.18761282 96.66660158 -27.43761263 98.83326836 -28.6875 101 C-39.9375 120.5 -39.9375 120.5 -51.1875 140 C-51.80633057 141.07266113 -52.42516113 142.14532227 -53.06274414 143.25048828 C-54.31185518 145.41557071 -55.56104129 147.58060982 -56.81030273 149.74560547 C-59.94952309 155.18615706 -63.08740563 160.62747216 -66.22265625 166.0703125 C-67.48166951 168.25526672 -68.74078374 170.44016277 -70 172.625 C-70.61770264 173.69685547 -71.23540527 174.76871094 -71.87182617 175.87304688 C-76.13645575 183.26529509 -80.43768186 190.63549866 -84.75 198 C-89.1313918 205.48626277 -93.41930357 213.01271598 -97.59960938 220.61279297 C-101.22224738 227.17178362 -104.97560094 233.65235729 -108.75 240.125 C-109.33716797 241.13304687 -109.92433594 242.14109375 -110.52929688 243.1796875 C-113.74518484 248.67793709 -117.03058731 254.11797282 -120.4375 259.5 C-123.19263436 257.03130845 -124.83721224 254.32225209 -126.66015625 251.1171875 C-127.58550171 249.50118652 -127.58550171 249.50118652 -128.52954102 247.85253906 C-129.17979248 246.70495117 -129.83004395 245.55736328 -130.5 244.375 C-131.84183726 242.01192882 -133.1857807 239.65006746 -134.53125 237.2890625 C-134.86359146 236.70499634 -135.19593292 236.12093018 -135.53834534 235.51916504 C-137.52902469 232.0367687 -139.58468101 228.60713311 -141.71875 225.2109375 C-142.1943335 224.44539551 -142.66991699 223.67985352 -143.15991211 222.89111328 C-144.02968375 221.50144353 -144.91513389 220.12141919 -145.81860352 218.75341797 C-147.68923408 215.7339741 -148.53032084 214.0688061 -147.94921875 210.5078125 C-146.16413556 206.95609658 -144.25147495 203.51941034 -142.1875 200.125 C-141.27930508 198.60585287 -140.37179194 197.08629802 -139.46484375 195.56640625 C-138.97612793 194.75059082 -138.48741211 193.93477539 -137.98388672 193.09423828 C-135.20708082 188.43583293 -132.48020736 183.7483173 -129.75 179.0625 C-129.15985107 178.05058594 -128.56970215 177.03867188 -127.96166992 175.99609375 C-121.7159552 165.27814919 -115.52045517 154.53135346 -109.32861328 143.78222656 C-106.20069852 138.35340058 -103.06891552 132.92680719 -99.9375 127.5 C-98.68748121 125.33334417 -97.43748122 123.1666775 -96.1875 121 C-88.6875 108 -81.1875 95 -73.6875 82 C-73.06810547 80.92637207 -72.44871094 79.85274414 -71.81054688 78.74658203 C-70.5670949 76.59128689 -69.32360564 74.43601327 -68.08007812 72.28076172 C-65.19287125 67.27662326 -62.3059957 62.2722948 -59.42053223 57.26715088 C-58.41130896 55.51658759 -57.40196164 53.76609589 -56.39257812 52.015625 C-55.1358234 49.83607835 -53.87929414 47.65640168 -52.62304688 45.4765625 C-52.04619141 44.47625 -51.46933594 43.4759375 -50.875 42.4453125 C-50.31159912 41.46820313 -49.74819824 40.49109375 -49.16772461 39.484375 C-47.35581825 36.35911137 -45.52328361 33.2464034 -43.69140625 30.1328125 C-41.41576222 26.23760601 -39.28561464 22.34000075 -37.375 18.25 C-33.35912158 10.122627 -29.18109405 4.32148309 -21.4375 -0.5 C-14.97656695 -2.65364435 -6.29561884 -2.81319976 0 0 Z " fill="#48A3EE" transform="translate(404.4375,1.5)"/>
<path d="M0 0 C2.1975045 1.20865383 4.33845753 2.48531598 6.47705078 3.79541016 C8.14204414 4.79082302 9.80742911 5.78558106 11.47314453 6.77978516 C12.36114746 7.31410156 13.24915039 7.84841797 14.1640625 8.39892578 C17.26033842 10.23913052 20.38221191 12.02882493 23.51220703 13.81103516 C25.13848022 14.741698 25.13848022 14.741698 26.79760742 15.69116211 C28.93051838 16.91109273 31.06635603 18.12592294 33.20532227 19.33520508 C34.18186768 19.89828369 35.15841309 20.4613623 36.16455078 21.04150391 C37.03337891 21.53706787 37.90220703 22.03263184 38.79736328 22.54321289 C41.69462965 24.56505307 43.75844444 26.56031396 44.40283203 30.10791016 C44.2248543 37.11749482 44.2248543 37.11749482 42.03955078 40.10791016 C38.63693795 42.37631871 38.22993934 42.10427494 34.41455078 41.79541016 C31.45732004 41.98676038 29.72358327 42.35527557 27.69580078 44.58642578 C22.38965845 51.84249658 22.38965845 51.84249658 20.03955078 60.10791016 C22.39122501 61.57695856 24.74560653 62.94635102 27.16455078 64.29541016 C39.53725194 71.50920649 39.53725194 71.50920649 41.74267578 78.26025391 C42.64930875 83.1711825 41.97517378 86.99859229 39.46533203 91.31103516 C35.95552545 95.73435304 31.87094941 97.7290001 26.41455078 98.85791016 C19.91465299 98.49245406 13.64335059 94.19314825 8.03955078 91.10791016 C7.79591797 91.94837891 7.55228516 92.78884766 7.30126953 93.65478516 C5.89075777 97.51513313 3.97976028 100.86609867 1.85205078 104.35791016 C0.94583722 105.87147602 0.04097811 107.38585334 -0.86279297 108.90087891 C-1.35763184 109.72894043 -1.8524707 110.55700195 -2.36230469 111.41015625 C-5.35931563 116.46927187 -8.27959757 121.57278397 -11.21044922 126.67041016 C-18.41200009 139.17807552 -25.67449076 151.64924396 -32.96044922 164.10791016 C-38.87958772 163.59047553 -43.45330942 161.82160303 -48.77294922 159.23291016 C-49.59537109 158.83724854 -50.41779297 158.44158691 -51.26513672 158.03393555 C-64.24879606 151.64989007 -76.49285808 143.9233051 -87.96044922 135.10791016 C-84.13308267 127.03310024 -79.84677338 119.35637969 -75.21289062 111.72143555 C-74.58133057 110.67137329 -74.58133057 110.67137329 -73.93701172 109.60009766 C-73.55625488 108.97474121 -73.17549805 108.34938477 -72.78320312 107.70507812 C-71.80780136 106.11102095 -71.80780136 106.11102095 -71.96044922 104.10791016 C-73.42841725 102.96370811 -73.42841725 102.96370811 -75.27294922 101.85791016 C-78.86683445 99.34801055 -80.58654958 97.39124433 -81.96044922 93.10791016 C-82.61384437 88.10126979 -82.54554896 84.32311731 -80.33544922 79.73291016 C-76.97015367 76.01337297 -74.43875144 73.39566658 -69.26904297 72.79541016 C-64.49084034 72.6936109 -61.20551801 72.86894982 -56.96044922 75.10791016 C-55.97044922 75.10791016 -54.98044922 75.10791016 -53.96044922 75.10791016 C-50.99044922 69.82791016 -48.02044922 64.54791016 -44.96044922 59.10791016 C-46.61044922 58.44791016 -48.26044922 57.78791016 -49.96044922 57.10791016 C-55.04337666 54.14286915 -59.76850263 50.84313812 -61.63232422 45.00244141 C-62.5103221 39.90127373 -61.78140113 36.30706365 -59.20654297 31.83447266 C-56.67652556 28.3289313 -54.01880325 26.46069483 -49.96044922 25.10791016 C-42.93004634 24.19355644 -38.45564806 25.87028834 -32.58544922 29.60791016 C-27.64107977 32.94643431 -27.64107977 32.94643431 -21.96044922 34.10791016 C-20.59079714 31.86611638 -19.23992114 29.61618678 -17.89794922 27.35791016 C-17.50800781 26.72369141 -17.11806641 26.08947266 -16.71630859 25.43603516 C-14.53888188 21.99397736 -14.53888188 21.99397736 -14.23217773 18.07958984 C-14.97434234 15.83568744 -14.97434234 15.83568744 -16.96044922 13.10791016 C-17.72187585 6.47262096 -17.72187585 6.47262096 -15.94482422 3.28759766 C-11.39514451 -2.38579812 -6.61027997 -3.00796551 0 0 Z " fill="#D0CED5" transform="translate(191.96044921875,327.89208984375)"/>
<path d="M0 0 C2.87029869 1.79393668 4.49131638 2.98263276 6 6 C6.6082822 12.32613492 5.84245741 13.23631388 2 19 C6.455 26.92 6.455 26.92 11 35 C15.80397285 34.03920543 18.73289415 32.46887953 22.75 29.9375 C27.40846292 27.16466328 31.41015093 24.82550084 36.96875 25.40625 C41.87094085 26.8391981 45.52839447 29.43641912 49 33.125 C51.00379124 38.88589983 50.99130729 44.7156832 48.5625 50.3125 C44.66012654 54.40523315 40.0546117 57.47269415 35 60 C37.01221033 65.23428301 39.62163184 70.026612 42.3125 74.9375 C42.84447998 75.91041992 43.37645996 76.88333984 43.92456055 77.88574219 C48.10695096 85.48341499 52.46091946 92.96773479 56.90234375 100.41625977 C61.44158703 108.02996954 65.89011085 115.6930726 70.3125 123.375 C70.64931793 123.95987183 70.98613586 124.54474365 71.3331604 125.14733887 C73.22370109 128.43064382 75.11261188 131.7148819 77 135 C72.96603734 139.40214179 68.55488165 142.47624516 63.5 145.625 C62.68063965 146.1391748 61.8612793 146.65334961 61.01708984 147.18310547 C31.31014345 165.5320082 31.31014345 165.5320082 22 165 C20.47623463 162.35880669 18.9524704 159.71761273 17.42871094 157.07641602 C16.08432862 154.74616432 14.73993029 152.41592188 13.39550781 150.08569336 C9.9468146 144.10817017 6.49840815 138.13048203 3.05078125 132.15234375 C2.41865723 131.05647949 1.7865332 129.96061523 1.13525391 128.83154297 C-0.11690119 126.66029761 -1.36853282 124.48875028 -2.61962891 122.31689453 C-5.5263569 117.27357084 -8.44233607 112.23629168 -11.38671875 107.21484375 C-11.90459961 106.32917725 -12.42248047 105.44351074 -12.95605469 104.53100586 C-13.91788708 102.88774342 -14.88318523 101.24650284 -15.85253906 99.60766602 C-19 94.22318174 -19 94.22318174 -19 92 C-19.9178125 92.5053125 -20.835625 93.010625 -21.78125 93.53125 C-34.2421875 100.20675223 -34.2421875 100.20675223 -41 99 C-46.26594344 97.14143173 -48.79395768 94.39685804 -52 90 C-53.73764074 84.78707778 -53.90047309 80.0082291 -51.4375 75.0625 C-46.90564081 68.38397067 -38.03537204 64.51768602 -31 61 C-33.30878895 54.9590425 -35.92454964 49.06440505 -40 44 C-42.93118966 43.07941442 -44.85933586 43.60118551 -48 44 C-51.13780801 42.37298844 -53.24513472 40.95178666 -55.4375 38.1875 C-56.30204969 34.82536233 -55.82327073 32.35188798 -55 29 C-52.16825116 24.75674351 -49.19116676 22.67835575 -44.72265625 20.29296875 C-44.11546249 19.96388016 -43.50826874 19.63479156 -42.88267517 19.29573059 C-40.94799193 18.24927469 -39.00589737 17.21766766 -37.0625 16.1875 C-34.52961061 14.83224727 -32.00051187 13.47008362 -29.47265625 12.10546875 C-28.84984772 11.7714505 -28.22703918 11.43743225 -27.58535767 11.09329224 C-22.1591456 8.15562623 -16.97066829 4.90341268 -11.80249023 1.53540039 C-7.81992705 -0.64652659 -4.38340592 -1.2602292 0 0 Z " fill="#D0CFD5" transform="translate(331,327)"/>
<path d="M0 0 C6.69950401 4.18600885 9.72960442 10.93157045 13.4375 17.6875 C14.13984719 18.94525209 14.84356576 20.20223927 15.54858398 21.45849609 C16.99744288 24.0416594 18.44125474 26.62754429 19.88183594 29.21533203 C23.0471241 34.88729921 26.3060356 40.50504908 29.5625 46.125 C30.80361589 48.27330437 32.04450118 50.42174198 33.28515625 52.5703125 C33.89762207 53.63024414 34.51008789 54.69017578 35.14111328 55.78222656 C38.26324605 61.18670645 41.38141204 66.59347412 44.5 72 C45.74998122 74.1666775 46.99998121 76.33334417 48.25 78.5 C70.75 117.5 70.75 117.5 72.62524414 120.75048828 C73.87435518 122.91557071 75.12354129 125.08060982 76.37280273 127.24560547 C79.51202309 132.68615706 82.64990563 138.12747216 85.78515625 143.5703125 C91.80747329 154.02206199 97.84669337 164.46299548 103.9375 174.875 C109.35921178 184.14499777 114.70204915 193.45831752 120.01922607 202.78845215 C125.22045129 211.9128284 130.48027878 221.00132774 135.78344727 230.06689453 C141.93766742 240.59084625 148.02369996 251.15380137 154.10888672 261.71777344 C156.61432565 266.06622696 159.12226931 270.4132326 161.63061523 274.76000977 C162.86883981 276.90608242 164.10663846 279.05240087 165.34399414 281.19897461 C168.2799432 286.29148918 171.21960631 291.38175984 174.17169189 296.4649353 C175.57068053 298.87434008 176.96767029 301.2849009 178.36450195 303.69555664 C179.35498071 305.40298982 180.3483594 307.10873972 181.34179688 308.81445312 C181.93798828 309.84376953 182.53417969 310.87308594 183.1484375 311.93359375 C183.67614746 312.84165771 184.20385742 313.74972168 184.74755859 314.68530273 C186 317 186 317 187 320 C178.585 324.95 178.585 324.95 170 330 C167.09376706 326.36720883 164.88279307 323.28033488 162.63671875 319.30078125 C162.00499756 318.18751465 161.37327637 317.07424805 160.72241211 315.92724609 C160.22570511 315.04489288 160.22570511 315.04489288 159.71896362 314.14471436 C158.30504564 311.63313685 156.8814735 309.12707484 155.45863342 306.62054443 C154.72272457 305.32383464 153.98732624 304.02683499 153.25242615 302.72955322 C149.68042145 296.42563732 146.06366865 290.14790189 142.4375 283.875 C141.82350342 282.81192627 141.20950684 281.74885254 140.5769043 280.65356445 C139.33776657 278.5081844 138.0984281 276.36292029 136.85888672 274.21777344 C133.73675395 268.81329355 130.61858796 263.40652588 127.5 258 C126.25001878 255.8333225 125.00001879 253.66665583 123.75 251.5 C101.25 212.5 101.25 212.5 99.37475586 209.24951172 C98.12564482 207.08442929 96.87645871 204.91939018 95.62719727 202.75439453 C92.48797691 197.31384294 89.35009437 191.87252784 86.21484375 186.4296875 C80.19252671 175.97793801 74.15330663 165.53700452 68.0625 155.125 C62.64078822 145.85500223 57.29795085 136.54168248 51.98077393 127.21154785 C46.77954871 118.0871716 41.51972122 108.99867226 36.21655273 99.93310547 C30.06233258 89.40915375 23.97630004 78.84619863 17.89111328 68.28222656 C15.38575945 63.93392073 12.87807 59.58696633 10.36914062 55.24072266 C9.13039345 53.0929784 7.89339233 50.94422605 6.65820312 48.79443359 C3.73715537 43.71498757 0.80001407 38.6470983 -2.19747925 33.61242676 C-3.61139517 31.2352419 -5.01576663 28.8524856 -6.41943359 26.46923828 C-7.41358914 24.79037896 -8.42148132 23.11967801 -9.4296875 21.44921875 C-10.02910156 20.42957031 -10.62851563 19.40992187 -11.24609375 18.359375 C-11.77904053 17.46702148 -12.3119873 16.57466797 -12.86108398 15.65527344 C-14.19073016 12.55533094 -14.2836216 10.34157281 -14 7 C-10.66781712 0.93339224 -6.71112067 -0.67111207 0 0 Z " fill="#F27154" transform="translate(123,15)"/>
<path d="M0 0 C2.12638265 1.12079534 4.15882603 2.32477737 6.19238281 3.60595703 C7.57408496 4.43983088 8.95685555 5.27193756 10.34082031 6.10205078 C11.23679932 6.65977173 11.23679932 6.65977173 12.15087891 7.22875977 C13.97397311 8.32649267 13.97397311 8.32649267 16.81738281 9.16845703 C16.81738281 9.82845703 16.81738281 10.48845703 16.81738281 11.16845703 C17.66558594 11.41466797 18.51378906 11.66087891 19.38769531 11.91455078 C23.12493576 13.28089951 26.34797882 15.11611333 29.69238281 17.23095703 C30.28535156 17.59511719 30.87832031 17.95927734 31.48925781 18.33447266 C32.95273995 19.24661993 34.38810831 20.20359071 35.81738281 21.16845703 C35.81738281 21.49845703 35.81738281 21.82845703 35.81738281 22.16845703 C35.23730469 22.25482422 34.65722656 22.34119141 34.05957031 22.43017578 C28.22144738 23.4802672 24.97753523 24.90683748 20.81738281 29.16845703 C18.69655507 32.49084589 18.54769369 35.20258855 18.56738281 39.10595703 C18.56222656 40.12560547 18.55707031 41.14525391 18.55175781 42.19580078 C18.63414836 45.15962906 18.63414836 45.15962906 19.99121094 47.51928711 C20.81738281 50.16845703 20.81738281 50.16845703 19.91796875 52.76123047 C19.38461914 53.67420898 18.85126953 54.5871875 18.30175781 55.52783203 C17.42209351 57.06395142 17.42209351 57.06395142 16.5246582 58.63110352 C15.87875732 59.71593018 15.23285645 60.80075684 14.56738281 61.91845703 C13.58983032 63.60853882 13.58983032 63.60853882 12.5925293 65.33276367 C10.68491745 68.62191976 8.75443892 71.89657896 6.81738281 75.16845703 C5.93743959 76.67175678 5.05837797 78.17557334 4.18066406 79.68017578 C2.64191474 82.31086816 1.09214244 84.9346615 -0.46386719 87.55517578 C-4.74089205 94.78090567 -8.90695172 102.07203183 -13.09448242 109.34985352 C-13.71009033 110.41921143 -14.32569824 111.48856934 -14.95996094 112.59033203 C-15.509021 113.54520508 -16.05808105 114.50007813 -16.6237793 115.48388672 C-17.67183971 117.28881582 -18.75974794 119.07112962 -19.8840332 120.82958984 C-21.42532629 123.15973374 -21.42532629 123.15973374 -21.18261719 126.16845703 C-25.35721303 124.92037806 -28.7095091 123.40125502 -32.32714844 120.98095703 C-33.25076172 120.36478516 -34.174375 119.74861328 -35.12597656 119.11376953 C-36.07279297 118.47181641 -37.01960938 117.82986328 -37.99511719 117.16845703 C-38.96126953 116.52650391 -39.92742187 115.88455078 -40.92285156 115.22314453 C-48.04902757 110.43563626 -48.04902757 110.43563626 -49.18261719 108.16845703 C-48.04272461 105.72583008 -48.04272461 105.72583008 -46.28808594 102.68017578 C-45.66224609 101.58125 -45.03640625 100.48232422 -44.39160156 99.35009766 C-43.71825242 98.18510714 -43.04441956 97.02039608 -42.37011719 95.85595703 C-41.06922444 93.59058726 -39.77094623 91.32371361 -38.47558594 89.05517578 C-37.60196411 87.54250122 -37.60196411 87.54250122 -36.71069336 85.99926758 C-35.32485263 83.4319528 -34.1998581 80.8993408 -33.18261719 78.16845703 C-34.82230469 77.11658203 -34.82230469 77.11658203 -36.49511719 76.04345703 C-40.03775351 73.46895007 -41.81264925 71.43953355 -43.18261719 67.16845703 C-43.83601234 62.16181666 -43.76771693 58.38366419 -41.55761719 53.79345703 C-38.19232164 50.07391984 -35.66091941 47.45621346 -30.49121094 46.85595703 C-25.71300831 46.75415777 -22.42768598 46.9294967 -18.18261719 49.16845703 C-17.19261719 49.16845703 -16.20261719 49.16845703 -15.18261719 49.16845703 C-12.21261719 43.88845703 -9.24261719 38.60845703 -6.18261719 33.16845703 C-7.83261719 32.50845703 -9.48261719 31.84845703 -11.18261719 31.16845703 C-16.26554463 28.20341602 -20.9906706 24.903685 -22.85449219 19.06298828 C-23.73249007 13.9618206 -23.0035691 10.36761052 -20.42871094 5.89501953 C-15.61416301 -0.77592149 -7.64557588 -2.91284468 0 0 Z " fill="#B4B1BE" transform="translate(153.1826171875,353.83154296875)"/>
<path d="M0 0 C2.8100346 1.79363911 4.50940468 3.01880935 6 6 C7.2811895 14.35729769 3.06570778 20.05432469 -1.125 27 C-1.86103245 28.24902477 -2.59538384 29.49904155 -3.328125 30.75 C-4.82199678 33.29455263 -6.32503408 35.83329399 -7.83691406 38.3671875 C-10.36074769 42.59873816 -12.84166304 46.85485229 -15.31982422 51.11328125 C-16.44677728 53.04950517 -17.57603807 54.98438762 -18.70751953 56.91796875 C-23.19129416 64.58202158 -27.6041043 72.2853878 -32 80 C-37.53985933 89.72124506 -43.13374932 99.40894868 -48.78344727 109.06689453 C-54.93766742 119.59084625 -61.02369996 130.15380137 -67.10888672 140.71777344 C-69.61403326 145.06571949 -72.12171714 149.41219906 -74.62963867 153.75854492 C-75.87085526 155.90965218 -77.111905 158.06085573 -78.3527832 160.2121582 C-81.25627178 165.2458636 -84.1606941 170.2790232 -87.06854248 175.31021118 C-88.09345403 177.08362608 -89.11806123 178.85721646 -90.14257812 180.63085938 C-91.42452738 182.84995773 -92.70704107 185.06873016 -93.99023438 187.28710938 C-97.382778 193.16127054 -100.73072173 199.0562835 -104 205 C-110.41275337 204.72711688 -115.25734563 202.36594659 -120 198 C-121.27978516 195.71850586 -121.27978516 195.71850586 -122 193 C-121.08813477 190.45825195 -121.08813477 190.45825195 -119.44140625 187.73828125 C-118.83554687 186.71541016 -118.2296875 185.69253906 -117.60546875 184.63867188 C-116.93128906 183.54103516 -116.25710938 182.44339844 -115.5625 181.3125 C-114.86786249 180.15154274 -114.17518444 178.98941104 -113.484375 177.82617188 C-112.04679147 175.40894224 -110.6008816 172.99700078 -109.14892578 170.58837891 C-105.85298921 165.10511716 -102.68294249 159.54932301 -99.5 154 C-98.25059757 151.83298869 -97.00059541 149.66632305 -95.75 147.5 C-95.13125 146.4275 -94.5125 145.355 -93.875 144.25 C-77 115 -60.125 85.75 -43.25 56.5 C-42.6305249 55.42613037 -42.0110498 54.35226074 -41.37280273 53.24584961 C-40.13052194 51.09278963 -38.88785012 48.93995522 -37.64477539 46.78735352 C-34.74163888 41.75898539 -31.84221133 36.72860186 -28.95724487 31.68978882 C-27.94122816 29.91567455 -26.92393072 28.14230081 -25.90625 26.36914062 C-24.63417708 24.15184686 -23.36447715 21.93318925 -22.09765625 19.71289062 C-9.84935652 -1.61276013 -9.84935652 -1.61276013 0 0 Z " fill="#84CFF8" transform="translate(396,15)"/>
<path d="M0 0 C0.66 0.33 1.32 0.66 2 1 C1.67 1.66 1.34 2.32 1 3 C0.85148156 4.93359586 0.77869167 6.87342097 0.75 8.8125 C0.71132813 10.36904297 0.71132813 10.36904297 0.671875 11.95703125 C1.04061723 15.37667646 2.12118236 17.16694076 4 20 C4 20.66 4 21.32 4 22 C4.804375 22.309375 5.60875 22.61875 6.4375 22.9375 C9 24 9 24 10 25 C10.60505371 24.98332275 11.21010742 24.96664551 11.83349609 24.94946289 C14.50193861 24.90415396 16.4707913 25.12043317 19 26 C21.91614518 29.0774538 23.69105657 32.68858915 25.625 36.4375 C26.8353874 38.64483299 28.04634425 40.85185379 29.2578125 43.05859375 C30.18062012 44.77925049 30.18062012 44.77925049 31.12207031 46.53466797 C34.1326054 52.08998973 37.32247686 57.53907089 40.5 63 C41.74574643 65.15569854 42.99053638 67.31195009 44.234375 69.46875 C44.85119141 70.53738281 45.46800781 71.60601562 46.10351562 72.70703125 C48.05949198 76.10329916 50.00635962 79.50469549 51.953125 82.90625 C53.21848587 85.10431874 54.48410137 87.30224092 55.75 89.5 C56.33458984 90.52738281 56.91917969 91.55476563 57.52148438 92.61328125 C58.33842773 94.02673828 58.33842773 94.02673828 59.171875 95.46875 C59.6472168 96.29826172 60.12255859 97.12777344 60.61230469 97.98242188 C62.00096424 100.26873169 62.00096424 100.26873169 65 102 C61.60628364 103.79569776 58.20966709 105.58584024 54.8125 107.375 C53.85279297 107.88289063 52.89308594 108.39078125 51.90429688 108.9140625 C50.97294922 109.40390625 50.04160156 109.89375 49.08203125 110.3984375 C48.22843018 110.84880371 47.3748291 111.29916992 46.49536133 111.76318359 C42.14388572 113.91997602 38.92248037 115.28128459 34 115 C32.47623463 112.35880669 30.9524704 109.71761273 29.42871094 107.07641602 C28.08432862 104.74616432 26.73993029 102.41592188 25.39550781 100.08569336 C21.9468146 94.10817017 18.49840815 88.13048203 15.05078125 82.15234375 C14.41865723 81.05647949 13.7865332 79.96061523 13.13525391 78.83154297 C11.88309881 76.66029761 10.63146718 74.48875028 9.38037109 72.31689453 C6.4736431 67.27357084 3.55766393 62.23629168 0.61328125 57.21484375 C0.09540039 56.32917725 -0.42248047 55.44351074 -0.95605469 54.53100586 C-1.91788708 52.88774342 -2.88318523 51.24650284 -3.85253906 49.60766602 C-7 44.22318174 -7 44.22318174 -7 42 C-7.9178125 42.5053125 -8.835625 43.010625 -9.78125 43.53125 C-22.2421875 50.20675223 -22.2421875 50.20675223 -29 49 C-34.26594344 47.14143173 -36.79395768 44.39685804 -40 40 C-41.73764074 34.78707778 -41.90047309 30.0082291 -39.4375 25.0625 C-35.51092661 19.46087868 -29.23349908 16.55054572 -23.37744141 13.32714844 C-20.70029089 11.83269473 -18.05932437 10.28337309 -15.41796875 8.7265625 C-13.50813807 7.60881853 -11.597984 6.49162693 -9.6875 5.375 C-8.76195312 4.8294043 -7.83640625 4.28380859 -6.8828125 3.72167969 C-6.01785156 3.22313477 -5.15289062 2.72458984 -4.26171875 2.2109375 C-3.48787842 1.76024902 -2.71403809 1.30956055 -1.91674805 0.84521484 C-1.28422119 0.56629395 -0.65169434 0.28737305 0 0 Z " fill="#B4B1BD" transform="translate(319,377)"/>
<path d="M0 0 C3.88926902 3.41410946 5.98497921 7.2496206 8.375 11.75 C11.39315453 17.36118379 14.50477289 22.87978425 17.8359375 28.3125 C18.48385254 29.38016602 19.13176758 30.44783203 19.79931641 31.54785156 C21.08512005 33.65856503 22.38658835 35.75982664 23.70458984 37.85058594 C24.29191895 38.82286133 24.87924805 39.79513672 25.484375 40.796875 C26.01772461 41.65635742 26.55107422 42.51583984 27.10058594 43.40136719 C28.33510008 46.96818819 27.51816721 48.5994379 26 52 C25.05881638 53.80871805 24.06395416 55.59029265 23.0234375 57.34375 C22.43836426 58.33697266 21.85329102 59.33019531 21.25048828 60.35351562 C20.63157715 61.39185547 20.01266602 62.43019531 19.375 63.5 C18.10891168 65.64555999 16.84328481 67.79139236 15.578125 69.9375 C14.96517578 70.97390625 14.35222656 72.0103125 13.72070312 73.078125 C11.48941531 76.86700874 9.29801215 80.67746941 7.125 84.5 C6.50882813 85.5828125 5.89265625 86.665625 5.2578125 87.78125 C4.84273437 88.5134375 4.42765625 89.245625 4 90 C-5.60214567 85.00143622 -14.95410901 79.71198222 -24.20117188 74.0859375 C-28.76529879 71.33061224 -33.38853961 68.67499594 -38 66 C-29.02236563 49.47427799 -19.8391131 33.06483102 -10.375 16.8125 C-9.79556641 15.81581299 -9.21613281 14.81912598 -8.61914062 13.79223633 C-5.87341791 9.0975841 -3.08629124 4.47888606 0 0 Z " fill="#49A4EE" transform="translate(228,262)"/>
<path d="M0 0 C2.87029869 1.79393668 4.49131638 2.98263276 6 6 C6.48379131 10.19285801 6.45865983 12.31154128 4.08984375 15.8671875 C0.50522365 19.93332374 -4.11257068 22.29547131 -8.8125 24.875 C-9.69615234 25.37257813 -10.57980469 25.87015625 -11.49023438 26.3828125 C-13.65438376 27.5994154 -15.82406066 28.80465336 -18 30 C-16.66046519 34.51923867 -14.82799296 38.23234075 -12.375 42.25 C-9 47.7877551 -9 47.7877551 -9 50 C-15.92404778 53.83060438 -22.90048389 57.50567281 -30 61 C-30.26103516 60.48501953 -30.52207031 59.97003906 -30.79101562 59.43945312 C-31.9956373 57.10826757 -33.24657122 54.80528277 -34.5 52.5 C-34.90992188 51.68917969 -35.31984375 50.87835938 -35.7421875 50.04296875 C-37.01398416 47.74988084 -38.14533047 45.85752726 -40 44 C-42.88015598 43.32700752 -44.99558608 43.67224575 -48 44 C-51.13780801 42.37298844 -53.24513472 40.95178666 -55.4375 38.1875 C-56.30204969 34.82536233 -55.82327073 32.35188798 -55 29 C-52.16825116 24.75674351 -49.19116676 22.67835575 -44.72265625 20.29296875 C-44.11546249 19.96388016 -43.50826874 19.63479156 -42.88267517 19.29573059 C-40.94799193 18.24927469 -39.00589737 17.21766766 -37.0625 16.1875 C-34.52961061 14.83224727 -32.00051187 13.47008362 -29.47265625 12.10546875 C-28.84984772 11.7714505 -28.22703918 11.43743225 -27.58535767 11.09329224 C-22.1591456 8.15562623 -16.97066829 4.90341268 -11.80249023 1.53540039 C-7.81992705 -0.64652659 -4.38340592 -1.2602292 0 0 Z " fill="#D0CED5" transform="translate(331,327)"/>
<path d="M0 0 C0.33 0 0.66 0 1 0 C1.08636719 0.68964844 1.17273438 1.37929687 1.26171875 2.08984375 C2.4069064 9.74894281 4.04509007 16.59965309 10.1171875 21.8203125 C17.52251363 26.98160041 24.02301157 28.73512346 33 28 C35.44110517 27.49703694 37.63898163 26.82122378 40 26 C38.54402677 31.05676724 36.32669221 35.16451986 33.625 39.625 C33.19525879 40.34486084 32.76551758 41.06472168 32.32275391 41.80639648 C30.88738428 44.20763427 29.44362281 46.6037162 28 49 C26.89011439 50.85255877 25.78075278 52.70543155 24.671875 54.55859375 C21.78744986 59.37613435 18.89607544 64.18945522 16 69 C13.24486564 66.53130845 11.60028776 63.82225209 9.77734375 60.6171875 C9.16044678 59.53985352 8.5435498 58.46251953 7.90795898 57.35253906 C6.93258179 55.63115723 6.93258179 55.63115723 5.9375 53.875 C4.59566274 51.51192882 3.2517193 49.15006746 1.90625 46.7890625 C1.57390854 46.20499634 1.24156708 45.62093018 0.89915466 45.01916504 C-1.09152469 41.5367687 -3.14718101 38.10713311 -5.28125 34.7109375 C-5.7568335 33.94539551 -6.23241699 33.17985352 -6.72241211 32.39111328 C-7.59218375 31.00144353 -8.47763389 29.62141919 -9.38110352 28.25341797 C-11.20982643 25.30161855 -12.0887679 23.58808731 -11.5625 20.1015625 C-9.50210679 16.01168197 -7.29091073 12.0528991 -4.9375 8.125 C-4.47794922 7.34125 -4.01839844 6.5575 -3.54492188 5.75 C-1.02639112 1.50437107 -1.02639112 1.50437107 0 0 Z " fill="#4AA4EE" transform="translate(268,192)"/>
<path d="M0 0 C4.5565527 3.71274665 6.57400393 8.79007402 9 14 C8.01 14.33 7.02 14.66 6 15 C4.94665323 17.27626693 4.94665323 17.27626693 4 20 C2.96310728 21.93996512 1.89208452 23.86188158 0.796875 25.76953125 C0.15234375 26.89520508 -0.4921875 28.02087891 -1.15625 29.18066406 C-1.85404125 30.39134834 -2.55196066 31.60195875 -3.25 32.8125 C-3.9637315 34.05555508 -4.67727102 35.29872042 -5.390625 36.54199219 C-12.1999261 48.39642885 -19.0851901 60.20684409 -26 72 C-30.27950966 70.31777374 -34.04054217 68.32909284 -38 66 C-29.02236563 49.47427799 -19.8391131 33.06483102 -10.375 16.8125 C-9.79556641 15.81581299 -9.21613281 14.81912598 -8.61914062 13.79223633 C-5.87341791 9.0975841 -3.08629124 4.47888606 0 0 Z " fill="#5090DD" transform="translate(228,262)"/>
<path d="M0 0 C2.58471374 2.9676343 4.81260206 6.09246006 6.875 9.4375 C7.32617188 10.15808594 7.77734375 10.87867188 8.2421875 11.62109375 C9.31322299 14.98326185 8.26051467 16.74466846 7 20 C6.05881638 21.80871805 5.06395416 23.59029265 4.0234375 25.34375 C3.43836426 26.33697266 2.85329102 27.33019531 2.25048828 28.35351562 C1.32212158 29.91102539 1.32212158 29.91102539 0.375 31.5 C-0.89108832 33.64555999 -2.15671519 35.79139236 -3.421875 37.9375 C-4.34129883 39.49210937 -4.34129883 39.49210937 -5.27929688 41.078125 C-7.51058469 44.86700874 -9.70198785 48.67746941 -11.875 52.5 C-12.49117187 53.5828125 -13.10734375 54.665625 -13.7421875 55.78125 C-14.15726563 56.5134375 -14.57234375 57.245625 -15 58 C-16.81853256 57.07425608 -18.62968883 56.13401005 -20.4375 55.1875 C-21.44683594 54.66542969 -22.45617187 54.14335937 -23.49609375 53.60546875 C-26 52 -26 52 -27 49 C-25.91113281 46.57421875 -25.91113281 46.57421875 -24.203125 43.6875 C-23.26654053 42.08672607 -23.26654053 42.08672607 -22.31103516 40.45361328 C-21.62408846 39.30237005 -20.9370754 38.15116642 -20.25 37 C-19.56062155 35.82728536 -18.87231335 34.65394094 -18.18505859 33.47998047 C-16.79693149 31.11208521 -15.4036463 28.74737009 -14.00488281 26.38574219 C-11.67804796 22.45630407 -9.36046907 18.52166687 -7.05761719 14.578125 C-6.12351832 12.97863192 -5.18429988 11.38211438 -4.23925781 9.7890625 C-3.82256836 9.0775 -3.40587891 8.3659375 -2.9765625 7.6328125 C-2.61643066 7.02324707 -2.25629883 6.41368164 -1.88525391 5.78564453 C-0.9404853 3.87995298 -0.44072136 2.07556322 0 0 Z " fill="#5090DD" transform="translate(247,294)"/>
<path d="M0 0 C0.495 0.99 0.495 0.99 1 2 C-0.22827148 4.59106445 -0.22827148 4.59106445 -2.12109375 7.86328125 C-2.62746117 8.74502266 -2.62746117 8.74502266 -3.14405823 9.64457703 C-4.23441253 11.53830424 -5.33598159 13.42524946 -6.4375 15.3125 C-7.14587659 16.54191792 -7.8535664 17.77173183 -8.56054688 19.00195312 C-13.22687006 27.09338894 -18.06342915 35.07071106 -23 43 C-25.77292224 40.36250741 -27.39115867 37.70558919 -29.1875 34.3125 C-29.71730469 33.31863281 -30.24710937 32.32476562 -30.79296875 31.30078125 C-31.19128906 30.54152344 -31.58960938 29.78226563 -32 29 C-28.5 23.3125 -28.5 23.3125 -27.39526367 21.55932617 C-25.4995317 18.53342273 -23.72346912 15.51658855 -22.14453125 12.3125 C-17.57684033 3.58616511 -17.57684033 3.58616511 -12.7109375 1.77734375 C-9.4430327 1.28824492 -6.29892703 1.09025792 -3 1 C-2.01 0.67 -1.02 0.34 0 0 Z " fill="#5090DD" transform="translate(307,218)"/>
<path d="M0 0 C1.14877206 2.29754412 1.13130264 3.82300675 1.25 6.375 C1.61023435 9.93731747 1.74755049 10.73390457 4.3125 13.4375 C6.51439095 14.71766916 8.67268933 15.9656397 11 17 C7.69183477 20.52440191 3.81326707 22.73026744 -0.3125 25.1875 C-1.05951172 25.65091797 -1.80652344 26.11433594 -2.57617188 26.59179688 C-6.833047 29.12947748 -9.89386101 30.78729015 -15 30 C-18.0413374 28.36235678 -20.28615407 26.90006661 -22.4375 24.1875 C-23.30204969 20.82536233 -22.82327073 18.35188798 -22 15 C-18.74938398 9.73709787 -14.05963365 7.48750212 -8.75 4.6875 C-7.90953125 4.23310547 -7.0690625 3.77871094 -6.203125 3.31054688 C-4.14045137 2.19717191 -2.07293296 1.09411873 0 0 Z " fill="#B4B1BD" transform="translate(298,341)"/>
<path d="M0 0 C2.56666283 1.42737625 5.08219034 2.91705122 7.59033203 4.44482422 C8.46496094 4.96496094 9.33958984 5.48509766 10.24072266 6.02099609 C12.38450351 7.29789289 14.52133113 8.585069 16.65283203 9.88232422 C15.74597656 10.31544922 15.74597656 10.31544922 14.82080078 10.75732422 C11.49081025 12.48531931 8.35611586 14.47575656 6.65283203 17.88232422 C6.58287189 19.58935157 6.56843049 21.29900425 6.59033203 23.00732422 C6.59935547 23.91740234 6.60837891 24.82748047 6.61767578 25.76513672 C6.62927734 26.46380859 6.64087891 27.16248047 6.65283203 27.88232422 C2.72652302 26.43161078 -0.74947419 24.57866045 -4.34716797 22.44482422 C-5.35779297 21.84798828 -6.36841797 21.25115234 -7.40966797 20.63623047 C-8.37904297 20.05744141 -9.34841797 19.47865234 -10.34716797 18.88232422 C-11.25466797 18.37572266 -12.16216797 17.86912109 -13.09716797 17.34716797 C-15.34716797 15.88232422 -15.34716797 15.88232422 -17.34716797 12.88232422 C-18.1085946 6.24703502 -18.1085946 6.24703502 -16.33154297 3.06201172 C-11.6011928 -2.83667795 -6.50812075 -3.09904065 0 0 Z " fill="#B4B1BE" transform="translate(192.34716796875,328.11767578125)"/>
<path d="M0 0 C4.79296738 2.44170037 7.6602877 5.14059753 10 10 C10.80165291 15.0226009 10.59932381 18.80135239 8.3125 23.375 C5.18921832 26.92034678 2.51818411 29.49393863 -2 31 C-2.58007812 30.03320312 -3.16015625 29.06640625 -3.7578125 28.0703125 C-4.32157593 27.13106934 -4.32157593 27.13106934 -4.89672852 26.17285156 C-5.71839047 24.80292501 -6.5391857 23.43247824 -7.35913086 22.06152344 C-9.19799153 18.98914357 -11.04609044 15.92569663 -12.93359375 12.8828125 C-13.47113281 12.01398438 -14.00867188 11.14515625 -14.5625 10.25 C-15.03816406 9.49203125 -15.51382812 8.7340625 -16.00390625 7.953125 C-17 6 -17 6 -17 3 C-11.19532376 -0.68525767 -6.71735617 -1.93170725 0 0 Z " fill="#DA4453" transform="translate(392,401)"/>
<path d="M0 0 C3.6875 1.5 3.6875 1.5 6 3 C4.88377061 8.75254982 1.47256834 13.64595389 -1.375 18.6875 C-1.96539062 19.75806641 -2.55578125 20.82863281 -3.1640625 21.93164062 C-3.73640625 22.94806641 -4.30875 23.96449219 -4.8984375 25.01171875 C-5.42099121 25.94459717 -5.94354492 26.87747559 -6.48193359 27.83862305 C-8 30 -8 30 -11 31 C-14.77829098 29.27400798 -17.53142241 26.64996246 -19.9375 23.3125 C-21.82113878 17.43997911 -22.07732825 12.2375279 -19.375 6.625 C-13.50616316 0.13839087 -8.52112097 -1.09827781 0 0 Z " fill="#5090DD" transform="translate(131,401)"/>
<path d="M0 0 C3.0835768 0.63183093 5.41377992 1.67188344 8.109375 3.28515625 C8.86347656 3.73310547 9.61757812 4.18105469 10.39453125 4.64257812 C11.56048828 5.34543945 11.56048828 5.34543945 12.75 6.0625 C13.93916016 6.77116211 13.93916016 6.77116211 15.15234375 7.49414062 C17.1043111 8.65826573 19.05335805 9.82699902 21 11 C19.47146065 15.27186525 17.28490519 18.99326863 14.875 22.8125 C14.50246094 23.40998047 14.12992188 24.00746094 13.74609375 24.62304688 C12.8342952 26.08426251 11.91764024 27.54244585 11 29 C6.44532781 28.02837874 2.82926186 25.84402074 -1.1875 23.5625 C-1.92419922 23.15451172 -2.66089844 22.74652344 -3.41992188 22.32617188 C-4.12052734 21.93107422 -4.82113281 21.53597656 -5.54296875 21.12890625 C-6.18258545 20.76869385 -6.82220215 20.40848145 -7.48120117 20.03735352 C-9 19 -9 19 -10 17 C-9.19555664 15.21240234 -9.19555664 15.21240234 -7.91015625 13.0859375 C-7.45576172 12.32539063 -7.00136719 11.56484375 -6.53320312 10.78125 C-6.04787109 9.9871875 -5.56253906 9.193125 -5.0625 8.375 C-4.34030273 7.17230469 -4.34030273 7.17230469 -3.60351562 5.9453125 C-2.40943235 3.95911458 -1.20804799 1.97772458 0 0 Z " fill="#EAECEC" transform="translate(200,358)"/>
<path d="M0 0 C1.50787377 2.59988552 3.00645461 5.20440197 4.5 7.8125 C4.92925781 8.55048828 5.35851562 9.28847656 5.80078125 10.04882812 C6.40986328 11.11713867 6.40986328 11.11713867 7.03125 12.20703125 C7.40830078 12.8616333 7.78535156 13.51623535 8.17382812 14.19067383 C9 16 9 16 9 19 C7.25585938 20.3503418 7.25585938 20.3503418 4.84375 21.69921875 C3.55791016 22.42915039 3.55791016 22.42915039 2.24609375 23.17382812 C1.33988281 23.67333984 0.43367188 24.17285156 -0.5 24.6875 C-1.40621094 25.19861328 -2.31242187 25.70972656 -3.24609375 26.23632812 C-5.49193057 27.50108886 -7.74316089 28.75501079 -10 30 C-13.48336459 26.85647586 -15.58752783 23.55486955 -17.8125 19.4375 C-18.43769531 18.30183594 -19.06289063 17.16617187 -19.70703125 15.99609375 C-21 13 -21 13 -20 10 C-18.37353516 8.74145508 -18.37353516 8.74145508 -16.2890625 7.51953125 C-15.53882813 7.07802734 -14.78859375 6.63652344 -14.015625 6.18164062 C-13.22671875 5.72982422 -12.4378125 5.27800781 -11.625 4.8125 C-10.45324219 4.11737305 -10.45324219 4.11737305 -9.2578125 3.40820312 C-3.39510079 0 -3.39510079 0 0 0 Z " fill="#EBECEB" transform="translate(333,346)"/>
<path d="M0 0 C0.33 0 0.66 0 1 0 C1.12117188 0.74765625 1.24234375 1.4953125 1.3671875 2.265625 C1.53476562 3.25046875 1.70234375 4.2353125 1.875 5.25 C2.11863281 6.71179688 2.11863281 6.71179688 2.3671875 8.203125 C2.84709725 10.95637814 2.84709725 10.95637814 4.1328125 12.984375 C5.4379628 16.01796758 4.86546395 17.83817168 4 21 C2.80099692 23.55685143 1.39736548 25.95954036 -0.0625 28.375 C-0.43955078 29.01566406 -0.81660156 29.65632813 -1.20507812 30.31640625 C-2.12839617 31.88254066 -3.06305393 33.44198034 -4 35 C-7.17630899 31.07987182 -9.90421485 27.59460592 -12 23 C-10.80311687 17.51361627 -7.79235974 12.88982956 -4.9375 8.125 C-4.47794922 7.34125 -4.01839844 6.5575 -3.54492188 5.75 C-1.02639112 1.50437107 -1.02639112 1.50437107 0 0 Z " fill="#5190DC" transform="translate(268,192)"/>
<path d="M0 0 C3.6875 1.5 3.6875 1.5 6 3 C5.31238981 6.65564909 3.74550455 9.51867272 1.9375 12.75 C1.38964844 13.73484375 0.84179688 14.7196875 0.27734375 15.734375 C-0.14417969 16.48203125 -0.56570312 17.2296875 -1 18 C-7.32614095 16.34315356 -11.34872677 13.47690984 -15 8 C-14.79571886 5.27625143 -14.42311212 3.56686175 -12.78125 1.3671875 C-9.19868186 -1.38259068 -4.28954353 -0.47661595 0 0 Z " fill="#49A3ED" transform="translate(131,401)"/>
<path d="M0 0 C0.42064893 6.09940955 0.08964656 9.13663653 -4 14 C-6.71335021 16.44863311 -8.53043669 17.8434789 -12 19 C-14.64 14.71 -17.28 10.42 -20 6 C-14.40493324 0.40493324 -7.70503062 -2.01000799 0 0 Z " fill="#ED4E58" transform="translate(402,413)"/>
</svg>
